;Layer: Drill PTH
;EasyEDA v6.4.7, 2020-12-25T10:38:26+08:00
;e43d5a52300b4474860904ef7121ae38,6a067dcc3d704d6e9d47775c98f5c0bd,10
;Gerber Generator version 0.2
M48
INCH,LZ,00.0000
;Holesize 1 = 0.012 INCH
T01C0.012
;Holesize 2 = 0.018 INCH
T02C0.018
;Holesize 3 = 0.020 INCH
T03C0.020
;Holesize 4 = 0.022 INCH
T04C0.022
;Holesize 5 = 0.035 INCH
T05C0.035
%
G05
G90
T01
X+013818Y+004606
X+013818Y+004251
X+014488Y+004251
X+014488Y+004606
X+016495Y+003508
X+017322Y+002677
X+017322Y+006141
X+003469Y+004949
X+008149Y+004409
X+007677Y+004409
X+011063Y+003897
X+010952Y+005393
X+008464Y+006062
X+007755Y+005314
X+013149Y+002480
X+011693Y+003779
X+008582Y+004409
X+009763Y+006653
X+011574Y+004803
X+011889Y+004330
X+010000Y+003700
X+010472Y+004173
X+004330Y+004094
X+005039Y+005039
X+012952Y+004094
X+008031Y+004999
X+009330Y+002047
X+013031Y+003661
X+012047Y+006062
X+002992Y+003917
X+011063Y+004999
X+006496Y+005118
X+006496Y+005708
X+005708Y+005708
X+005708Y+005118
X+006496Y+003543
X+005708Y+003543
X+010747Y+006456
X+012677Y+004448
X+015078Y+005039
X+015078Y+005551
X+014803Y+002047
X+015708Y+002125
X+012244Y+001968
X+010787Y+002322
X+002992Y+003031
X+002992Y+005393
X+001889Y+002440
X+000905Y+002244
X+000905Y+004055
X+000905Y+004921
X+017834Y+002677
X+017834Y+004291
X+017834Y+005236
X+017834Y+006141
X+014763Y+003425
X+015196Y+003936
T02
X+002037Y+005846G85X+002253Y+005846
X+002037Y+003011G85X+002253Y+003011
T03
X+000610Y+003011G85X+000964Y+003011
X+000610Y+005846G85X+000964Y+005846
X+016279Y+005590
X+015846Y+005590
T04
X+001633Y+005216
X+001633Y+003641
T05
X+018504Y+005929
X+018504Y+004929
X+018504Y+003929
X+018504Y+002929
X+000933Y+007429
X+001933Y+007429
X+002933Y+007429
X+003933Y+007429
X+004933Y+007429
X+005933Y+007429
X+006933Y+007429
X+007933Y+007429
X+008933Y+007429
X+009933Y+007429
X+010933Y+007429
X+011933Y+007429
X+012933Y+007429
X+013933Y+007429
X+014933Y+007429
X+015933Y+007429
X+016933Y+007429
X+017933Y+007429
X+018933Y+007429
X+019933Y+007429
X+000933Y+001429
X+001933Y+001429
X+002933Y+001429
X+003933Y+001429
X+004933Y+001429
X+005933Y+001429
X+006933Y+001429
X+007933Y+001429
X+008933Y+001429
X+009933Y+001429
X+010933Y+001429
X+011933Y+001429
X+012933Y+001429
X+013933Y+001429
X+014933Y+001429
X+015933Y+001429
X+016933Y+001429
X+017933Y+001429
X+018933Y+001429
X+019933Y+001429
X+014173Y+005389
X+014173Y+003469
M30
