G04 Layer: TopPasteMaskLayer*
G04 EasyEDA v6.4.7, 2020-12-25T10:38:26+08:00*
G04 e43d5a52300b4474860904ef7121ae38,6a067dcc3d704d6e9d47775c98f5c0bd,10*
G04 Gerber Generator version 0.2*
G04 Scale: 100 percent, Rotated: No, Reflected: No *
G04 Dimensions in inches *
G04 leading zeros omitted , absolute positions ,2 integer and 4 decimal *
%FSLAX24Y24*%
%MOIN*%
G90*
D02*

%ADD13C,0.011811*%
%ADD16R,0.062992X0.015748*%
%ADD18R,0.055100X0.051200*%

%LPD*%
G54D13*
G01X12745Y5013D02*
G01X12411Y4679D01*
G01X12606Y5152D02*
G01X12272Y4818D01*
G01X12467Y5292D02*
G01X12133Y4958D01*
G01X12328Y5431D02*
G01X11993Y5097D01*
G01X12188Y5570D02*
G01X11854Y5236D01*
G01X12049Y5709D02*
G01X11715Y5375D01*
G01X11910Y5848D02*
G01X11576Y5514D01*
G01X11771Y5988D02*
G01X11437Y5654D01*
G01X11632Y6127D02*
G01X11298Y5793D01*
G01X11492Y6266D02*
G01X11158Y5932D01*
G01X11353Y6405D02*
G01X11019Y6071D01*
G01X11214Y6544D02*
G01X10880Y6210D01*
G01X10379Y6210D02*
G01X10045Y6544D01*
G01X10240Y6071D02*
G01X9906Y6405D01*
G01X10101Y5932D02*
G01X9766Y6266D01*
G01X9961Y5793D02*
G01X9627Y6127D01*
G01X9822Y5654D02*
G01X9488Y5988D01*
G01X9683Y5514D02*
G01X9349Y5848D01*
G01X9544Y5375D02*
G01X9210Y5709D01*
G01X9405Y5236D02*
G01X9070Y5570D01*
G01X9265Y5097D02*
G01X8931Y5431D01*
G01X9126Y4958D02*
G01X8792Y5292D01*
G01X8987Y4818D02*
G01X8653Y5152D01*
G01X8848Y4679D02*
G01X8514Y5013D01*
G01X8848Y4178D02*
G01X8514Y3844D01*
G01X8987Y4039D02*
G01X8653Y3705D01*
G01X9126Y3900D02*
G01X8792Y3566D01*
G01X9265Y3761D02*
G01X8931Y3426D01*
G01X9405Y3621D02*
G01X9070Y3287D01*
G01X9544Y3482D02*
G01X9210Y3148D01*
G01X9683Y3343D02*
G01X9349Y3009D01*
G01X9822Y3204D02*
G01X9488Y2870D01*
G01X9961Y3065D02*
G01X9627Y2730D01*
G01X10101Y2925D02*
G01X9766Y2591D01*
G01X10240Y2786D02*
G01X9906Y2452D01*
G01X10379Y2647D02*
G01X10045Y2313D01*
G01X11214Y2313D02*
G01X10880Y2647D01*
G01X11353Y2452D02*
G01X11019Y2786D01*
G01X11492Y2591D02*
G01X11158Y2925D01*
G01X11632Y2730D02*
G01X11298Y3065D01*
G01X11771Y2870D02*
G01X11437Y3204D01*
G01X11910Y3009D02*
G01X11576Y3343D01*
G01X12049Y3148D02*
G01X11715Y3482D01*
G01X12188Y3287D02*
G01X11854Y3621D01*
G01X12328Y3426D02*
G01X11993Y3761D01*
G01X12467Y3566D02*
G01X12133Y3900D01*
G01X12606Y3705D02*
G01X12272Y4039D01*
G01X12745Y3844D02*
G01X12411Y4178D01*
G54D16*
G01X2027Y4684D03*
G01X2027Y4429D03*
G01X2027Y4173D03*
G01X2027Y3917D03*
G01X2027Y4940D03*
G36*
G01X3873Y3843D02*
G01X4473Y3843D01*
G01X4473Y3243D01*
G01X3873Y3243D01*
G01X3873Y3843D01*
G37*
G36*
G01X6944Y3843D02*
G01X7544Y3843D01*
G01X7544Y3243D01*
G01X6944Y3243D01*
G01X6944Y3843D01*
G37*
G54D18*
G01X17322Y4862D03*
G01X17322Y5689D03*
G01X17322Y3956D03*
G01X17322Y3129D03*
G36*
G01X3873Y5614D02*
G01X4473Y5614D01*
G01X4473Y5014D01*
G01X3873Y5014D01*
G01X3873Y5614D01*
G37*
G36*
G01X6944Y5614D02*
G01X7544Y5614D01*
G01X7544Y5014D01*
G01X6944Y5014D01*
G01X6944Y5614D01*
G37*
M00*
M02*
