G04 Layer: TopSolderMaskLayer*
G04 EasyEDA v6.4.7, 2020-12-25T10:38:26+08:00*
G04 e43d5a52300b4474860904ef7121ae38,6a067dcc3d704d6e9d47775c98f5c0bd,10*
G04 Gerber Generator version 0.2*
G04 Scale: 100 percent, Rotated: No, Reflected: No *
G04 Dimensions in inches *
G04 leading zeros omitted , absolute positions ,2 integer and 4 decimal *
%FSLAX24Y24*%
%MOIN*%
G90*
D02*

%ADD37C,0.049339*%
%ADD38C,0.050913*%
%ADD39C,0.019811*%
%ADD41C,0.078866*%
%ADD46C,0.067055*%
%ADD47C,0.039496*%

%LPD*%
G54D37*
G01X2253Y5846D02*
G01X2037Y5846D01*
G01X2253Y3011D02*
G01X2037Y3011D01*
G54D38*
G01X966Y3011D02*
G01X608Y3011D01*
G01X966Y5846D02*
G01X608Y5846D01*
G54D39*
G01X12745Y5013D02*
G01X12411Y4679D01*
G01X12606Y5152D02*
G01X12272Y4818D01*
G01X12467Y5292D02*
G01X12133Y4958D01*
G01X12328Y5431D02*
G01X11993Y5097D01*
G01X12188Y5570D02*
G01X11854Y5236D01*
G01X12049Y5709D02*
G01X11715Y5375D01*
G01X11910Y5848D02*
G01X11576Y5514D01*
G01X11771Y5988D02*
G01X11437Y5654D01*
G01X11632Y6127D02*
G01X11298Y5793D01*
G01X11492Y6266D02*
G01X11158Y5932D01*
G01X11353Y6405D02*
G01X11019Y6071D01*
G01X11214Y6544D02*
G01X10880Y6210D01*
G01X10379Y6210D02*
G01X10045Y6544D01*
G01X10240Y6071D02*
G01X9906Y6405D01*
G01X10101Y5932D02*
G01X9766Y6266D01*
G01X9961Y5793D02*
G01X9627Y6127D01*
G01X9822Y5654D02*
G01X9488Y5988D01*
G01X9683Y5514D02*
G01X9349Y5848D01*
G01X9544Y5375D02*
G01X9210Y5709D01*
G01X9405Y5236D02*
G01X9070Y5570D01*
G01X9265Y5097D02*
G01X8931Y5431D01*
G01X9126Y4958D02*
G01X8792Y5292D01*
G01X8987Y4818D02*
G01X8653Y5152D01*
G01X8848Y4679D02*
G01X8514Y5013D01*
G01X8848Y4178D02*
G01X8514Y3844D01*
G01X8987Y4039D02*
G01X8653Y3705D01*
G01X9126Y3900D02*
G01X8792Y3566D01*
G01X9265Y3761D02*
G01X8931Y3426D01*
G01X9405Y3621D02*
G01X9070Y3287D01*
G01X9544Y3482D02*
G01X9210Y3148D01*
G01X9683Y3343D02*
G01X9349Y3009D01*
G01X9822Y3204D02*
G01X9488Y2870D01*
G01X9961Y3065D02*
G01X9627Y2730D01*
G01X10101Y2925D02*
G01X9766Y2591D01*
G01X10240Y2786D02*
G01X9906Y2452D01*
G01X10379Y2647D02*
G01X10045Y2313D01*
G01X11214Y2313D02*
G01X10880Y2647D01*
G01X11353Y2452D02*
G01X11019Y2786D01*
G01X11492Y2591D02*
G01X11158Y2925D01*
G01X11632Y2730D02*
G01X11298Y3065D01*
G01X11771Y2870D02*
G01X11437Y3204D01*
G01X11910Y3009D02*
G01X11576Y3343D01*
G01X12049Y3148D02*
G01X11715Y3482D01*
G01X12188Y3287D02*
G01X11854Y3621D01*
G01X12328Y3426D02*
G01X11993Y3761D01*
G01X12467Y3566D02*
G01X12133Y3900D01*
G01X12606Y3705D02*
G01X12272Y4039D01*
G01X12745Y3844D02*
G01X12411Y4178D01*
G36*
G01X18110Y5535D02*
G01X18110Y6323D01*
G01X18897Y6323D01*
G01X18897Y5535D01*
G01X18110Y5535D01*
G37*
G54D41*
G01X18504Y4929D03*
G01X18504Y3929D03*
G01X18504Y2929D03*
G01X932Y7429D03*
G01X1932Y7429D03*
G01X2932Y7429D03*
G01X3932Y7429D03*
G01X4932Y7429D03*
G01X5932Y7429D03*
G01X6932Y7429D03*
G01X7932Y7429D03*
G01X8932Y7429D03*
G01X9932Y7429D03*
G01X10932Y7429D03*
G01X11932Y7429D03*
G01X12932Y7429D03*
G01X13932Y7429D03*
G01X14932Y7429D03*
G01X15932Y7429D03*
G01X16932Y7429D03*
G01X17932Y7429D03*
G01X18932Y7429D03*
G36*
G01X19539Y7035D02*
G01X19539Y7823D01*
G01X20327Y7823D01*
G01X20327Y7035D01*
G01X19539Y7035D01*
G37*
G01X932Y1429D03*
G01X1932Y1429D03*
G01X2932Y1429D03*
G01X3932Y1429D03*
G01X4932Y1429D03*
G01X5932Y1429D03*
G01X6932Y1429D03*
G01X7932Y1429D03*
G01X8932Y1429D03*
G01X9932Y1429D03*
G01X10932Y1429D03*
G01X11932Y1429D03*
G01X12932Y1429D03*
G01X13932Y1429D03*
G01X14932Y1429D03*
G01X15932Y1429D03*
G01X16932Y1429D03*
G01X17932Y1429D03*
G01X18932Y1429D03*
G36*
G01X19539Y1035D02*
G01X19539Y1823D01*
G01X20327Y1823D01*
G01X20327Y1035D01*
G01X19539Y1035D01*
G37*
G36*
G01X1673Y4566D02*
G01X1673Y4803D01*
G01X2382Y4803D01*
G01X2382Y4566D01*
G01X1673Y4566D01*
G37*
G36*
G01X1673Y4310D02*
G01X1673Y4548D01*
G01X2382Y4548D01*
G01X2382Y4310D01*
G01X1673Y4310D01*
G37*
G36*
G01X1673Y4054D02*
G01X1673Y4292D01*
G01X2382Y4292D01*
G01X2382Y4054D01*
G01X1673Y4054D01*
G37*
G36*
G01X1673Y3798D02*
G01X1673Y4036D01*
G01X2382Y4036D01*
G01X2382Y3798D01*
G01X1673Y3798D01*
G37*
G36*
G01X1673Y4822D02*
G01X1673Y5059D01*
G01X2382Y5059D01*
G01X2382Y4822D01*
G01X1673Y4822D01*
G37*
G36*
G01X3832Y3203D02*
G01X3832Y3883D01*
G01X4513Y3883D01*
G01X4513Y3203D01*
G01X3832Y3203D01*
G37*
G36*
G01X6903Y3203D02*
G01X6903Y3883D01*
G01X7584Y3883D01*
G01X7584Y3203D01*
G01X6903Y3203D01*
G37*
G36*
G01X17006Y4566D02*
G01X17006Y5158D01*
G01X17638Y5158D01*
G01X17638Y4566D01*
G01X17006Y4566D01*
G37*
G36*
G01X17006Y5393D02*
G01X17006Y5985D01*
G01X17638Y5985D01*
G01X17638Y5393D01*
G01X17006Y5393D01*
G37*
G36*
G01X17006Y3661D02*
G01X17006Y4253D01*
G01X17638Y4253D01*
G01X17638Y3661D01*
G01X17006Y3661D01*
G37*
G36*
G01X17006Y2834D02*
G01X17006Y3426D01*
G01X17638Y3426D01*
G01X17638Y2834D01*
G01X17006Y2834D01*
G37*
G36*
G01X13838Y5054D02*
G01X13838Y5724D01*
G01X14509Y5724D01*
G01X14509Y5054D01*
G01X13838Y5054D01*
G37*
G54D46*
G01X14173Y3469D03*
G54D47*
G01X16279Y5590D03*
G01X15846Y5590D03*
G36*
G01X3832Y4975D02*
G01X3832Y5655D01*
G01X4513Y5655D01*
G01X4513Y4975D01*
G01X3832Y4975D01*
G37*
G36*
G01X6903Y4975D02*
G01X6903Y5655D01*
G01X7584Y5655D01*
G01X7584Y4975D01*
G01X6903Y4975D01*
G37*
M00*
M02*
