G04 Layer: BottomSolderMaskLayer*
G04 EasyEDA v6.4.7, 2020-12-25T10:38:26+08:00*
G04 e43d5a52300b4474860904ef7121ae38,6a067dcc3d704d6e9d47775c98f5c0bd,10*
G04 Gerber Generator version 0.2*
G04 Scale: 100 percent, Rotated: No, Reflected: No *
G04 Dimensions in inches *
G04 leading zeros omitted , absolute positions ,2 integer and 4 decimal *
%FSLAX24Y24*%
%MOIN*%
G90*
D02*

%ADD37C,0.049339*%
%ADD38C,0.050913*%
%ADD41C,0.078866*%
%ADD46C,0.067055*%
%ADD47C,0.039496*%
%ADD48R,0.043433X0.039496*%

%LPD*%
G54D37*
G01X2253Y5846D02*
G01X2037Y5846D01*
G01X2253Y3011D02*
G01X2037Y3011D01*
G54D38*
G01X966Y3011D02*
G01X608Y3011D01*
G01X966Y5846D02*
G01X608Y5846D01*
G36*
G01X18110Y5535D02*
G01X18110Y6323D01*
G01X18897Y6323D01*
G01X18897Y5535D01*
G01X18110Y5535D01*
G37*
G54D41*
G01X18504Y4929D03*
G01X18504Y3929D03*
G01X18504Y2929D03*
G36*
G01X13089Y4566D02*
G01X13089Y4961D01*
G01X13523Y4961D01*
G01X13523Y4566D01*
G01X13089Y4566D01*
G37*
G36*
G01X13089Y4015D02*
G01X13089Y4410D01*
G01X13523Y4410D01*
G01X13523Y4015D01*
G01X13089Y4015D01*
G37*
G36*
G01X15490Y4015D02*
G01X15490Y4410D01*
G01X15926Y4410D01*
G01X15926Y4015D01*
G01X15490Y4015D01*
G37*
G36*
G01X15490Y4566D02*
G01X15490Y4961D01*
G01X15926Y4961D01*
G01X15926Y4566D01*
G01X15490Y4566D01*
G37*
G36*
G01X3532Y3320D02*
G01X3532Y3857D01*
G01X4184Y3857D01*
G01X4184Y3320D01*
G01X3532Y3320D01*
G37*
G36*
G01X3532Y2520D02*
G01X3532Y3057D01*
G01X4184Y3057D01*
G01X4184Y2520D01*
G01X3532Y2520D01*
G37*
G36*
G01X9389Y3149D02*
G01X9389Y3544D01*
G01X9822Y3544D01*
G01X9822Y3149D01*
G01X9389Y3149D01*
G37*
G36*
G01X9389Y2598D02*
G01X9389Y2992D01*
G01X9822Y2992D01*
G01X9822Y2598D01*
G01X9389Y2598D01*
G37*
G36*
G01X5757Y2972D02*
G01X5757Y3327D01*
G01X6330Y3327D01*
G01X6330Y2972D01*
G01X5757Y2972D01*
G37*
G36*
G01X6740Y2598D02*
G01X6740Y2953D01*
G01X7313Y2953D01*
G01X7313Y2598D01*
G01X6740Y2598D01*
G37*
G36*
G01X6740Y3346D02*
G01X6740Y3701D01*
G01X7313Y3701D01*
G01X7313Y3346D01*
G01X6740Y3346D01*
G37*
G36*
G01X4663Y3346D02*
G01X4663Y3819D01*
G01X5353Y3819D01*
G01X5353Y3346D01*
G01X4663Y3346D01*
G37*
G36*
G01X4663Y2558D02*
G01X4663Y3032D01*
G01X5353Y3032D01*
G01X5353Y2558D01*
G01X4663Y2558D01*
G37*
G36*
G01X8394Y3346D02*
G01X8394Y3819D01*
G01X9085Y3819D01*
G01X9085Y3346D01*
G01X8394Y3346D01*
G37*
G36*
G01X8394Y2558D02*
G01X8394Y3032D01*
G01X9085Y3032D01*
G01X9085Y2558D01*
G01X8394Y2558D01*
G37*
G36*
G01X17106Y4802D02*
G01X17106Y5197D01*
G01X17539Y5197D01*
G01X17539Y4802D01*
G01X17106Y4802D01*
G37*
G36*
G01X17106Y5353D02*
G01X17106Y5748D01*
G01X17539Y5748D01*
G01X17539Y5353D01*
G01X17106Y5353D01*
G37*
G36*
G01X17106Y3621D02*
G01X17106Y4016D01*
G01X17539Y4016D01*
G01X17539Y3621D01*
G01X17106Y3621D01*
G37*
G36*
G01X17106Y3070D02*
G01X17106Y3465D01*
G01X17539Y3465D01*
G01X17539Y3070D01*
G01X17106Y3070D01*
G37*
G36*
G01X10372Y5196D02*
G01X10372Y5591D01*
G01X10807Y5591D01*
G01X10807Y5196D01*
G01X10372Y5196D01*
G37*
G36*
G01X10372Y5747D02*
G01X10372Y6142D01*
G01X10807Y6142D01*
G01X10807Y5747D01*
G01X10372Y5747D01*
G37*
G36*
G01X12498Y2598D02*
G01X12498Y2992D01*
G01X12934Y2992D01*
G01X12934Y2598D01*
G01X12498Y2598D01*
G37*
G36*
G01X12498Y3149D02*
G01X12498Y3544D01*
G01X12934Y3544D01*
G01X12934Y3149D01*
G01X12498Y3149D01*
G37*
G36*
G01X8956Y5747D02*
G01X8956Y6142D01*
G01X9389Y6142D01*
G01X9389Y5747D01*
G01X8956Y5747D01*
G37*
G36*
G01X8956Y5196D02*
G01X8956Y5591D01*
G01X9389Y5591D01*
G01X9389Y5196D01*
G01X8956Y5196D01*
G37*
G36*
G01X11081Y2598D02*
G01X11081Y2992D01*
G01X11515Y2992D01*
G01X11515Y2598D01*
G01X11081Y2598D01*
G37*
G36*
G01X11081Y3149D02*
G01X11081Y3544D01*
G01X11515Y3544D01*
G01X11515Y3149D01*
G01X11081Y3149D01*
G37*
G36*
G01X10372Y2598D02*
G01X10372Y2992D01*
G01X10807Y2992D01*
G01X10807Y2598D01*
G01X10372Y2598D01*
G37*
G36*
G01X10372Y3149D02*
G01X10372Y3544D01*
G01X10807Y3544D01*
G01X10807Y3149D01*
G01X10372Y3149D01*
G37*
G36*
G01X11790Y2598D02*
G01X11790Y2992D01*
G01X12225Y2992D01*
G01X12225Y2598D01*
G01X11790Y2598D01*
G37*
G36*
G01X11790Y3149D02*
G01X11790Y3544D01*
G01X12225Y3544D01*
G01X12225Y3149D01*
G01X11790Y3149D01*
G37*
G36*
G01X14527Y2460D02*
G01X14527Y2894D01*
G01X14922Y2894D01*
G01X14922Y2460D01*
G01X14527Y2460D01*
G37*
G36*
G01X13976Y2460D02*
G01X13976Y2894D01*
G01X14371Y2894D01*
G01X14371Y2460D01*
G01X13976Y2460D01*
G37*
G36*
G01X14527Y5924D02*
G01X14527Y6359D01*
G01X14922Y6359D01*
G01X14922Y5924D01*
G01X14527Y5924D01*
G37*
G36*
G01X13976Y5924D02*
G01X13976Y6359D01*
G01X14371Y6359D01*
G01X14371Y5924D01*
G01X13976Y5924D01*
G37*
G36*
G01X15588Y2488D02*
G01X15588Y2923D01*
G01X15982Y2923D01*
G01X15982Y2488D01*
G01X15588Y2488D01*
G37*
G36*
G01X16139Y2488D02*
G01X16139Y2923D01*
G01X16534Y2923D01*
G01X16534Y2488D01*
G01X16139Y2488D01*
G37*
G36*
G01X9664Y5747D02*
G01X9664Y6142D01*
G01X10098Y6142D01*
G01X10098Y5747D01*
G01X9664Y5747D01*
G37*
G36*
G01X9664Y5196D02*
G01X9664Y5591D01*
G01X10098Y5591D01*
G01X10098Y5196D01*
G01X9664Y5196D01*
G37*
G36*
G01X7656Y3149D02*
G01X7656Y3544D01*
G01X8090Y3544D01*
G01X8090Y3149D01*
G01X7656Y3149D01*
G37*
G36*
G01X7656Y2598D02*
G01X7656Y2992D01*
G01X8090Y2992D01*
G01X8090Y2598D01*
G01X7656Y2598D01*
G37*
G54D48*
G01X11299Y5944D03*
G36*
G01X11081Y5196D02*
G01X11081Y5591D01*
G01X11515Y5591D01*
G01X11515Y5196D01*
G01X11081Y5196D01*
G37*
G36*
G01X16239Y4015D02*
G01X16239Y4410D01*
G01X16673Y4410D01*
G01X16673Y4015D01*
G01X16239Y4015D01*
G37*
G36*
G01X16239Y4566D02*
G01X16239Y4961D01*
G01X16673Y4961D01*
G01X16673Y4566D01*
G01X16239Y4566D01*
G37*
G54D41*
G01X932Y7429D03*
G01X1932Y7429D03*
G01X2932Y7429D03*
G01X3932Y7429D03*
G01X4932Y7429D03*
G01X5932Y7429D03*
G01X6932Y7429D03*
G01X7932Y7429D03*
G01X8932Y7429D03*
G01X9932Y7429D03*
G01X10932Y7429D03*
G01X11932Y7429D03*
G01X12932Y7429D03*
G01X13932Y7429D03*
G01X14932Y7429D03*
G01X15932Y7429D03*
G01X16932Y7429D03*
G01X17932Y7429D03*
G01X18932Y7429D03*
G36*
G01X19539Y7035D02*
G01X19539Y7823D01*
G01X20327Y7823D01*
G01X20327Y7035D01*
G01X19539Y7035D01*
G37*
G01X932Y1429D03*
G01X1932Y1429D03*
G01X2932Y1429D03*
G01X3932Y1429D03*
G01X4932Y1429D03*
G01X5932Y1429D03*
G01X6932Y1429D03*
G01X7932Y1429D03*
G01X8932Y1429D03*
G01X9932Y1429D03*
G01X10932Y1429D03*
G01X11932Y1429D03*
G01X12932Y1429D03*
G01X13932Y1429D03*
G01X14932Y1429D03*
G01X15932Y1429D03*
G01X16932Y1429D03*
G01X17932Y1429D03*
G01X18932Y1429D03*
G36*
G01X19539Y1035D02*
G01X19539Y1823D01*
G01X20327Y1823D01*
G01X20327Y1035D01*
G01X19539Y1035D01*
G37*
G36*
G01X13838Y5054D02*
G01X13838Y5724D01*
G01X14509Y5724D01*
G01X14509Y5054D01*
G01X13838Y5054D01*
G37*
G54D46*
G01X14173Y3469D03*
G54D47*
G01X16279Y5590D03*
G01X15846Y5590D03*
M00*
M02*
